# xmcd
#
# Track frame offsets:
#	150
#	20420
#	54650
#	80516
#	94849
#	116449
#	143318
#	167441
#	185909
#	205013
#	226997
#	250063
#	271102
#	295787
#	312147
#	334282
#
# Disc length: 4743 seconds
#
# Revision: 0
# Processed by: cddbd v1.5.2PL0 Copyright (c) Steve Scherf et al.
# Submitted via: audiograbber 1.83.01
#
DISCID=d4128510
DTITLE=Sonic Seducer - Cold Hands Seduction Vol. 141 - 05-2013
DYEAR=2013
DGENRE=Gothic
TTITLE0=Stahlmann - Adrenalin (ROTERSAND REWORK) [Exklusiv]
TTITLE1=Dead Can Dance - Children Of The Sun (Live)
TTITLE2=Frozen Plasma - Warmongers (Live)
TTITLE3=Glis - Seconds
TTITLE4=Full Contact 69 - Man Machine
TTITLE5=Pyrroline - Disobedience
TTITLE6=Terminal Sound System - Oceans
TTITLE7=Krystal System - Parasites
TTITLE8=Lovelorn Dolls - Save Me From Myself
TTITLE9=Eden Synthetic Corps - FBK (Saturn Dawn RMX) [Exklusiv]
TTITLE10=Teardown - This Cold Room
TTITLE11=Terminal State - Infra Mental
TTITLE12=Genetic Disorder - LasterLuder
TTITLE13=X-Vivo - Reflection (Digital Pain RMX - Radio Version)
TTITLE14=Paranoid Android - Easy
TTITLE15=Hypnoskull - Show Me The Rhythm
EXTD=
EXTT0=
EXTT1=
EXTT2=
EXTT3=
EXTT4=
EXTT5=
EXTT6=
EXTT7=
EXTT8=
EXTT9=
EXTT10=
EXTT11=
EXTT12=
EXTT13=
EXTT14=
EXTT15=
PLAYORDER=
